<?xml version="1.0" standalone="no"?>
<!DOCTYPE svg PUBLIC "-//W3C//DTD SVG 20010904//EN"
 "http://www.w3.org/TR/2001/REC-SVG-20010904/DTD/svg10.dtd">
<svg version="1.0" xmlns="http://www.w3.org/2000/svg"
 width="1024.000000pt" height="1024.000000pt" viewBox="0 0 1024.000000 1024.000000"
 preserveAspectRatio="xMidYMid meet">

<g transform="translate(0.000000,1024.000000) scale(0.100000,-0.100000)"
fill="#000000" stroke="none">
<path d="M0 5120 l0 -5120 5120 0 5120 0 0 5120 0 5120 -5120 0 -5120 0 0
-5120z m5383 3563 c-51 -2 -135 -2 -185 0 -51 1 -10 3 92 3 102 0 143 -2 93
-3z m-310 -10 c-7 -2 -19 -2 -25 0 -7 3 -2 5 12 5 14 0 19 -2 13 -5z m628
-102 c156 -21 199 -31 374 -85 577 -177 1105 -576 1417 -1072 190 -301 322
-635 384 -970 36 -188 45 -554 20 -727 -25 -162 -89 -437 -130 -548 -76 -210
-221 -482 -345 -644 -218 -287 -421 -482 -678 -651 -91 -60 -408 -222 -483
-247 -25 -8 -81 -29 -125 -47 -101 -40 -337 -95 -480 -112 -65 -8 -224 -13
-390 -13 -250 0 -293 3 -405 24 -756 140 -1370 544 -1779 1170 -196 301 -346
698 -396 1054 -19 134 -19 479 0 612 42 296 131 604 239 822 63 128 221 374
312 489 167 206 363 383 599 537 367 239 741 368 1255 431 86 10 472 -4 611
-23z m-3131 -526 c77 -40 129 -159 85 -195 -8 -7 -15 -22 -15 -35 0 -29 -28
-53 -71 -61 l-34 -6 40 24 c49 29 63 63 46 118 -24 81 -102 130 -175 109 -42
-12 -95 -67 -102 -105 -8 -42 -32 -52 -40 -18 -17 65 49 162 123 182 43 12
106 6 143 -13z m5615 6 c45 -21 89 -65 100 -99 5 -18 3 -22 -14 -19 -11 2 -29
15 -40 29 -51 65 -133 72 -196 17 -48 -42 -63 -95 -40 -140 18 -34 18 -34 -2
-16 -11 9 -29 17 -41 17 -18 0 -22 6 -22 35 0 74 46 144 115 176 51 23 89 23
140 0z m-32 -83 c15 -11 13 -13 -18 -14 -20 0 -49 -10 -66 -23 -42 -31 -49
-19 -11 19 32 32 67 38 95 18z m-5606 -30 c36 -34 28 -37 -37 -14 -51 18 -63
19 -82 8 -17 -9 -15 -6 6 13 34 31 75 29 113 -7z m5370 -92 c4 -3 1 -12 -6
-19 -9 -9 -94 -14 -304 -19 -276 -7 -293 -6 -311 11 -10 11 -16 23 -13 27 6
10 624 10 634 0z m-4617 -5 c0 -27 -35 -33 -217 -33 -365 -2 -393 -1 -393 22
0 20 7 20 305 20 168 0 305 -4 305 -9z m-879 -68 c13 -16 12 -17 -3 -4 -10 7
-18 15 -18 17 0 8 8 3 21 -13z m5782 -12 c-33 -27 -87 -35 -120 -17 l-28 16
40 -6 c24 -3 56 1 80 10 52 19 54 19 28 -3z m-5413 -116 l125 -124 67 -3 c38
-2 68 -6 68 -9 0 -3 -9 -14 -20 -24 -15 -14 -29 -16 -60 -11 -27 4 -39 3 -35
-4 18 -29 -21 0 -120 88 -119 106 -177 174 -169 197 4 8 9 15 12 15 4 0 63
-56 132 -125z m5160 104 c0 -6 -62 -71 -137 -144 -124 -121 -141 -134 -181
-140 -36 -5 -50 -3 -70 12 -46 34 -39 43 33 43 l66 0 87 92 c48 50 105 104
126 120 40 29 76 37 76 17z m-390 -74 c222 -13 243 -49 26 -43 -134 3 -136 3
-163 31 l-28 29 30 -6 c17 -3 77 -8 135 -11z m-4400 -2 c0 -3 -7 -15 -17 -25
-14 -16 -33 -18 -165 -18 -140 0 -182 9 -120 25 61 16 302 31 302 18z m-1034
-22 c18 -11 44 -37 60 -58 39 -53 93 -114 187 -210 l80 -83 228 0 c126 0 229
-3 229 -7 -1 -34 -18 -37 -244 -41 l-225 -5 -84 89 c-47 49 -104 113 -127 142
-44 55 -50 58 -67 41 -7 -7 -10 -3 -10 17 0 63 -97 106 -151 68 -36 -25 -28 9
9 40 36 31 72 33 115 7z m6463 -7 c17 -14 31 -32 31 -40 0 -12 -5 -12 -36 1
-55 23 -89 19 -126 -14 -29 -26 -32 -32 -23 -57 6 -16 14 -28 18 -27 3 1 23
-5 43 -13 31 -13 38 -13 53 -1 30 26 38 27 35 4 -1 -12 -3 -25 -3 -30 -1 -4
-13 -12 -28 -18 -36 -13 -78 4 -121 50 l-33 36 -60 -65 c-33 -36 -85 -96 -116
-133 -31 -37 -64 -72 -74 -77 -10 -6 -116 -13 -237 -16 l-219 -7 -16 24 c-10
13 -17 27 -17 32 0 4 105 5 233 2 l232 -7 69 78 c38 44 91 99 118 123 27 24
68 68 90 98 61 84 131 105 187 57z m31 -205 c0 -13 115 -151 136 -162 8 -5
130 -11 272 -15 315 -7 285 -20 -52 -22 -239 -1 -239 -1 -260 22 -12 13 -47
52 -79 86 -48 53 -55 66 -47 83 11 20 30 26 30 8z m-6405 -133 c32 -14 63 -52
51 -63 -3 -3 -26 4 -51 16 -63 29 -118 28 -143 -4 -11 -14 -23 -25 -26 -25
-13 0 -5 33 15 61 18 25 27 29 70 29 27 0 65 -6 84 -14z m6283 -6 c27 -17 32
-25 32 -57 l-1 -38 -30 38 c-27 33 -36 37 -76 37 -36 0 -50 -6 -74 -29 -16
-16 -29 -36 -29 -45 0 -8 -4 -18 -10 -21 -6 -4 -10 10 -10 35 0 33 6 48 29 71
25 25 37 29 83 29 35 0 64 -7 86 -20z m-6823 -50 c4 -7 -54 -9 -167 -8 -151 2
-161 3 -78 8 161 10 239 10 245 0z m1135 -153 c0 -40 -14 -42 -298 -39 -272 3
-273 3 -249 22 21 17 44 20 163 23 367 8 384 7 384 -6z m5470 -3 c30 -3 228
-7 440 -10 212 -3 410 -8 440 -13 l55 -9 -60 -2 c-145 -5 -694 -21 -735 -21
-25 0 -179 3 -343 7 l-298 6 -10 25 c-5 13 -9 26 -9 28 0 6 451 -4 520 -11z
m-6171 -21 c130 -9 92 -21 -68 -22 -206 -1 -506 12 -446 20 71 8 405 10 514 2z
m7371 -105 c25 -13 55 -38 67 -57 27 -40 30 -59 6 -40 -15 12 -16 12 -10 -6 5
-14 1 -12 -14 8 -29 38 -70 57 -123 57 -40 0 -48 -4 -80 -42 -47 -54 -48 -98
-6 -156 49 -68 148 -76 198 -15 22 26 23 26 11 3 -22 -43 -50 -59 -107 -60
-56 0 -71 10 -125 81 l-18 24 6 -25 c5 -19 0 -15 -19 15 -42 65 -31 129 31
186 60 56 111 63 183 27z m-8247 1 c66 -34 116 -113 103 -165 -9 -34 -18 -30
-40 15 -62 131 -196 146 -255 29 -20 -40 -31 -40 -31 1 0 87 141 162 223 120z
m1505 -76 c-3 -17 -32 -18 -418 -21 -391 -3 -919 6 -893 15 23 8 510 20 906
21 384 2 408 1 405 -15z m6454 -1 c16 -16 -133 -21 -758 -27 -531 -5 -582 -5
-588 10 -3 9 -6 21 -6 27 0 14 1338 4 1352 -10z m263 -16 c16 -12 13 -13 -33
-8 -35 3 -58 0 -69 -9 -15 -11 -15 -10 1 9 22 25 72 30 101 8z m-8228 -18 c25
-23 32 -48 9 -28 -8 6 -36 20 -63 30 l-48 19 39 1 c27 0 47 -7 63 -22z m1431
-124 c14 -4 22 -13 20 -23 -3 -14 -29 -16 -232 -16 -214 -1 -229 -2 -249 -21
-12 -11 -73 -78 -134 -150 -108 -123 -272 -285 -317 -311 -24 -14 -399 -16
-451 -3 -24 6 -19 8 30 9 121 3 292 11 345 17 l55 5 218 218 c119 119 217 223
217 229 0 9 -70 12 -272 13 -237 1 -425 10 -378 19 83 15 1099 27 1148 14z
m5869 -3 c147 2 358 2 468 1 110 -1 206 -2 213 -2 6 0 12 -4 12 -9 0 -10 -342
-22 -618 -22 l-193 0 148 -156 c81 -85 182 -188 225 -228 l76 -72 78 -6 c42
-4 181 -7 308 -7 127 0 237 -4 244 -9 25 -15 -75 -21 -367 -21 l-286 0 -108
98 c-117 105 -306 305 -334 353 -10 16 -28 32 -40 35 -12 3 -116 4 -232 2
-220 -3 -221 -3 -221 39 0 14 20 15 179 9 99 -4 300 -6 448 -5z m-158 -177
c10 -3 11 -8 4 -15 -10 -10 -410 -32 -425 -23 -4 3 -8 15 -8 27 l0 22 207 -3
c115 -1 214 -5 222 -8z m-5756 0 c10 -3 17 -14 17 -24 0 -17 -10 -18 -152 -14
-185 6 -258 13 -258 24 0 14 360 27 393 14z m0 -174 c-5 -19 -14 -20 -270 -20
-249 0 -315 8 -206 25 47 7 462 22 475 17 3 -1 4 -11 1 -22z m6725 14 c46 -3
81 -8 79 -10 -2 -3 -129 -7 -281 -10 -248 -5 -276 -4 -270 10 9 24 210 28 472
10z m-1043 -5 c87 -6 168 -14 179 -19 35 -13 -112 -21 -314 -18 -183 3 -185 3
-188 26 -3 21 -1 22 81 22 46 0 155 -5 242 -11z m-6892 -6 c-7 -2 -21 -2 -30
0 -10 3 -4 5 12 5 17 0 24 -2 18 -5z m322 -3 c4 -7 -47 -9 -147 -8 l-153 2
120 6 c66 3 132 7 147 8 15 1 30 -2 33 -8z m470 -154 c97 -45 129 -110 99
-199 l-19 -52 -5 50 c-14 121 -109 197 -193 154 -31 -16 -77 -61 -77 -75 0
-18 -27 -37 -35 -24 -8 14 13 80 34 104 18 21 107 66 131 66 8 0 38 -11 65
-24z m5978 8 c77 -5 87 -8 87 -25 0 -18 -9 -19 -130 -19 -136 0 -152 5 -136
46 4 12 16 14 48 10 24 -3 82 -8 131 -12z m378 -12 c58 -38 86 -88 73 -133
l-10 -34 -33 53 c-36 58 -73 82 -123 82 -72 0 -131 -63 -127 -135 3 -55 14
-72 59 -95 55 -28 118 -26 165 5 20 14 35 20 33 13 -3 -7 -20 -24 -39 -36 -29
-20 -43 -23 -91 -19 -80 7 -136 41 -159 95 -22 50 -24 79 -8 119 39 104 165
145 260 85z m-5957 9 c13 -20 -29 -33 -132 -38 -115 -6 -154 -1 -134 19 9 9
58 14 239 27 12 0 24 -3 27 -8z m-407 -113 c28 -26 31 -48 3 -23 -29 26 -106
32 -130 10 -11 -10 -20 -14 -20 -8 0 12 28 38 50 46 25 10 73 -2 97 -25z
m6330 9 c12 -12 6 -12 -36 -3 -47 9 -52 8 -76 -14 -14 -13 -26 -33 -26 -44 -2
-20 -2 -20 -6 1 -6 29 13 62 40 73 28 12 87 5 104 -13z m-5942 -77 c0 -12 -20
-16 -109 -18 -106 -3 -136 4 -121 27 4 8 44 11 118 9 92 -2 112 -6 112 -18z
m5685 0 c0 -19 -7 -20 -130 -20 -123 0 -130 1 -130 20 0 19 7 20 130 20 123 0
130 -1 130 -20z m1260 3 l75 -7 -70 -6 c-93 -9 -811 -7 -820 2 -25 25 21 28
373 23 202 -3 401 -9 442 -12z m-7622 -10 c3 -10 -42 -13 -205 -13 -235 0
-393 9 -353 21 14 4 144 6 289 6 201 -2 265 -5 269 -14z m234 -101 c58 -4 67
-2 98 24 l35 28 -24 -27 c-54 -60 -152 -60 -208 0 -18 19 -33 39 -33 44 0 5
15 -8 34 -28 31 -34 39 -37 98 -41z m443 -43 c13 -20 -7 -24 -122 -27 -112 -4
-143 3 -129 27 9 15 242 15 251 0z m5694 -2 c6 -8 8 -17 4 -20 -3 -4 -66 -7
-140 -7 -126 0 -133 1 -133 20 0 19 7 20 129 20 95 0 131 -3 140 -13z m216 -1
c39 1 53 -1 40 -7 -33 -13 -98 -9 -125 7 l-25 15 25 -8 c14 -4 52 -7 85 -7z
m826 -3 c420 -9 340 -19 -195 -24 -375 -4 -401 -3 -404 14 -3 15 8 17 131 17
73 0 284 -3 468 -7z m-7694 -9 c-7 -8 -257 -7 -265 0 -3 3 57 6 133 6 76 0
136 -3 132 -6z m978 -144 c0 -13 -82 -15 -639 -18 -614 -2 -805 4 -470 14 88
3 166 8 174 11 19 8 854 20 900 13 22 -3 35 -11 35 -20z m6585 9 c184 -6 339
-16 345 -20 5 -5 -325 -9 -762 -9 -425 0 -774 4 -777 8 -10 16 10 31 49 35 71
7 801 -2 1145 -14z m-10 -94 c40 -21 38 -28 -8 -20 -29 5 -42 2 -59 -15 -12
-11 -27 -20 -33 -20 -33 0 23 57 68 69 2 1 16 -6 32 -14z m-7668 -12 c28 -33
30 -43 10 -40 -11 2 -27 9 -36 16 -9 7 -29 11 -46 9 -35 -5 -35 -5 -14 16 21
21 67 20 86 -1z m1109 -60 c7 -7 9 -16 5 -20 -4 -5 -238 -7 -519 -5 -384 3
-512 6 -512 15 0 16 205 24 652 23 273 -1 365 -4 374 -13z m6297 10 c84 -4
112 -9 112 -20 0 -10 -24 -13 -107 -14 -60 0 -298 -2 -530 -3 -400 -3 -423 -2
-423 15 0 10 9 19 23 22 36 7 803 7 925 0z m457 -22 c38 -8 37 -9 -22 -10 -36
-1 -63 3 -63 9 0 12 30 12 85 1z m-6751 -159 c22 -4 41 -13 44 -20 3 -9 -43
-12 -205 -12 -203 0 -233 4 -233 32 0 10 339 10 394 0z m5762 -5 c21 -20 -36
-27 -234 -27 -167 0 -213 3 -210 13 3 6 20 15 39 19 48 9 396 5 405 -5z
m-6762 -20 c55 1 110 4 123 8 13 3 23 1 23 -4 0 -17 -47 -21 -270 -20 -124 1
-218 3 -210 5 41 11 169 21 200 15 19 -3 80 -5 134 -4z m555 -7 c46 -23 85
-67 100 -112 l11 -33 160 -2 c102 -1 168 -7 182 -14 13 -7 37 -16 53 -20 31
-7 -139 -15 -289 -13 -62 1 -82 5 -92 18 -11 16 -13 16 -23 -1 -6 -10 -11 -14
-11 -9 0 5 -6 4 -13 -2 -11 -9 -16 -1 -26 37 -36 143 -202 147 -246 6 -5 -16
-8 -17 -15 -5 -6 8 -10 11 -10 6 0 -6 -5 -5 -11 1 -27 27 39 127 101 152 40
16 88 13 129 -9z m6398 -5 c76 -35 127 -123 87 -152 -17 -12 -20 -10 -39 29
-11 23 -36 53 -55 66 -74 50 -175 4 -187 -86 -4 -26 -11 -42 -19 -42 -8 0 -14
-4 -14 -10 0 -20 -20 -9 -26 14 -15 60 37 159 101 194 33 19 97 13 152 -13z
m738 10 c50 -1 115 -3 145 -5 l55 -3 -65 -7 c-69 -8 -610 -13 -610 -6 0 2 -3
12 -7 22 -6 16 7 16 193 9 109 -5 240 -9 289 -10z m-7157 -111 c30 -21 28 -36
-4 -24 -14 6 -41 10 -61 10 -30 0 -34 2 -23 15 16 19 60 19 88 -1z m6397 -2
c-3 -3 -11 0 -18 7 -9 10 -8 11 6 5 10 -3 15 -9 12 -12z m-105 -5 c0 -2 -10
-12 -21 -23 -22 -19 -22 -19 -10 4 10 18 31 31 31 19z m-6553 -55 c-8 -12
-348 -22 -477 -13 l-105 7 180 8 c99 4 227 11 285 15 102 7 129 3 117 -17z
m6413 11 c0 -2 -5 -13 -10 -24 -10 -18 -22 -19 -178 -18 -92 0 -176 4 -187 8
-19 7 -18 9 5 22 17 9 75 15 185 19 153 5 185 4 185 -7z m855 -8 c339 -1 391
-3 384 -9 -8 -8 -785 -29 -812 -22 -19 4 -27 13 -27 27 0 20 3 21 68 13 37 -4
211 -9 387 -9z m-565 -90 c-23 -24 -45 -36 -74 -40 -38 -6 -105 9 -94 21 3 2
18 0 33 -6 35 -13 95 2 132 35 41 35 42 30 3 -10z m-404 -75 c15 -6 77 -59
138 -117 357 -344 426 -413 412 -413 -8 0 -18 5 -21 11 -4 6 -14 8 -22 5 -15
-6 -303 257 -438 400 l-70 74 -175 2 c-157 3 -172 4 -150 17 41 23 279 38 326
21z m-5567 -11 c20 -7 45 -15 56 -19 32 -12 -127 -24 -217 -16 l-79 7 -97 -95
c-53 -51 -151 -146 -216 -210 -66 -64 -127 -116 -136 -116 -9 0 -25 -9 -35
-20 -18 -20 -18 -21 1 -14 20 8 20 6 -10 -16 -13 -10 -17 -10 -12 -2 12 20
-12 14 -34 -10 -11 -12 -20 -18 -20 -13 0 10 443 444 510 500 l42 35 106 0
c58 0 122 -5 141 -11z m6740 -5 c11 -10 -22 -12 -289 -15 -252 -4 -285 -2
-288 12 -2 14 28 15 285 11 158 -2 290 -6 292 -8z m-7549 -4 c0 -6 -36 -10
-87 -10 -61 0 -83 3 -73 10 20 13 160 13 160 0z m873 -173 c20 -9 37 -19 37
-23 0 -4 -82 -5 -182 -2 -180 4 -237 15 -222 40 11 17 320 5 367 -15z m5527 3
c10 -6 12 -12 4 -20 -15 -15 -406 -9 -411 7 -2 6 4 13 14 16 35 9 378 7 393
-3z m1050 1 c26 -8 -271 -24 -450 -25 -111 -1 -133 16 -33 25 101 8 454 8 483
0z m-7455 -15 c11 -2 -23 -3 -75 -4 -52 0 -85 3 -72 6 21 7 102 5 147 -2z
m-454 -131 c31 -17 73 -68 84 -102 7 -26 -6 -30 -25 -8 -7 8 -18 15 -25 15 -6
0 -20 10 -31 21 -44 50 -150 66 -197 29 -33 -26 -41 -25 -22 3 14 23 45 42 90
59 27 9 91 1 126 -17z m8035 6 c17 -10 42 -34 54 -53 l23 -33 -29 28 c-26 23
-38 27 -91 27 -54 0 -67 -4 -105 -33 -24 -18 -50 -47 -60 -65 -16 -33 -16 -33
-31 -12 -27 39 13 106 88 144 41 22 113 20 151 -3z m-1265 -60 c35 -27 118
-103 184 -170 l119 -121 51 6 c40 4 57 1 83 -15 17 -12 32 -28 32 -37 0 -13
-3 -14 -14 -5 -8 6 -39 11 -70 10 -51 -2 -60 -6 -86 -36 -16 -18 -33 -46 -36
-61 -4 -15 -14 -40 -23 -57 -9 -16 -17 -32 -18 -34 -3 -5 -43 25 -87 66 -23
21 -77 68 -121 105 -44 37 -104 92 -133 122 l-53 56 -155 0 c-131 0 -154 2
-154 15 0 26 47 35 188 35 l136 0 171 -167 c165 -162 199 -193 209 -193 2 0
10 24 16 53 7 28 19 65 27 81 15 29 14 30 -23 65 -22 20 -84 78 -139 130 -55
51 -119 106 -142 123 l-43 29 -157 -2 c-100 -1 -158 2 -160 8 -7 19 32 26 177
33 80 4 148 7 151 8 3 1 35 -20 70 -47z m-5417 28 c77 -5 145 -13 150 -17 19
-12 -66 -21 -199 -21 l-130 -1 -95 -81 c-52 -44 -101 -90 -108 -101 -24 -33
-91 -76 -111 -71 -16 4 -7 15 47 63 37 32 108 99 157 149 103 102 80 96 289
80z m-1419 -59 c8 -13 -5 -13 -25 0 -13 8 -13 10 2 10 9 0 20 -4 23 -10z
m8059 2 c2 -4 -14 -8 -37 -9 -31 -1 -37 1 -22 7 26 11 53 12 59 2z m-234 -72
c0 -19 -7 -20 -137 -20 -76 0 -155 -3 -175 -6 -30 -5 -39 -3 -44 11 -4 10 -1
21 7 26 8 5 89 9 182 9 160 0 167 -1 167 -20z m-7300 -6 c0 -14 -7 -15 -37
-10 -21 3 -60 7 -88 8 l-50 1 55 7 c101 12 120 11 120 -6z m-203 -8 c4 -3 -24
-6 -60 -6 -37 0 -70 0 -74 -1 -4 0 -9 3 -10 8 -3 9 135 8 144 -1z m1294 -23
c7 -7 10 -16 6 -19 -3 -4 -69 -7 -146 -8 l-139 -1 -39 -34 c-21 -19 -91 -86
-155 -148 -65 -62 -122 -113 -128 -113 -22 0 -8 40 23 65 17 15 90 84 161 152
l129 125 138 -4 c92 -2 142 -7 150 -15z m-1667 -102 c-3 -3 -15 6 -27 18 l-22
24 27 -19 c14 -10 24 -21 22 -23z m8133 14 c-29 -26 -79 -33 -106 -16 -9 6 5
8 38 8 36 -1 57 4 68 16 10 9 20 17 23 17 3 0 -8 -12 -23 -25z m-8084 -22 c-7
-2 -19 -2 -25 0 -7 3 -2 5 12 5 14 0 19 -2 13 -5z m924 -50 c23 -26 63 -94 63
-109 0 -4 -20 12 -44 34 -54 50 -118 64 -172 38 -41 -19 -47 -2 -11 31 29 26
43 31 95 32 35 1 48 -4 69 -26z m5395 -9 c43 -22 236 -192 291 -256 39 -45 46
-49 65 -39 32 17 122 13 162 -7 33 -16 86 -80 75 -90 -3 -3 -15 4 -28 16 -30
28 -70 42 -123 42 -61 0 -105 -20 -142 -66 -35 -42 -43 -29 -16 24 8 18 13 40
9 51 -8 27 -284 302 -329 328 -32 18 0 15 36 -3z m-4599 -19 c-3 -9 -31 -33
-62 -54 -31 -21 -106 -82 -168 -135 -109 -94 -126 -105 -137 -87 -5 8 146 146
250 230 32 25 90 54 121 61 1 0 0 -7 -4 -15z m4622 -95 c18 -20 17 -20 -96
-19 -115 1 -110 9 18 24 26 3 49 7 51 10 7 7 7 7 27 -15z m-4596 -6 c10 -9
-66 -3 -79 6 -10 7 -1 8 30 4 25 -4 47 -8 49 -10z m5551 -68 c0 -2 -8 -10 -17
-17 -16 -13 -17 -12 -4 4 13 16 21 21 21 13z m-5405 -77 c101 -20 104 -22 40
-30 -33 -3 -117 -2 -188 3 -70 5 -132 6 -137 3 -6 -3 -10 -2 -10 3 0 5 15 17
33 25 35 18 163 15 262 -4z m4511 4 c7 -10 13 -20 14 -23 0 -10 -385 -11 -410
-1 -23 9 -22 10 15 11 22 1 99 8 170 15 188 17 196 17 211 -2z m-5056 -49 c31
-26 51 -58 64 -101 12 -37 -17 -28 -53 17 -56 70 -135 77 -221 20 -49 -33 -64
-24 -33 19 51 70 184 94 243 45z m-75 -74 c4 -6 -8 -10 -28 -10 -20 0 -46 -9
-63 -22 -15 -13 -24 -17 -20 -10 11 19 68 52 88 52 9 0 20 -4 23 -10z m5512 2
c6 -4 -8 -7 -32 -7 -24 0 -41 3 -38 8 5 9 54 9 70 -1z m-209 -35 c5 -23 -11
-21 -39 3 l-24 20 30 -3 c18 -2 31 -10 33 -20z m252 -177 c-14 -11 -36 -20
-50 -20 -20 0 -22 2 -10 10 8 5 22 10 31 10 9 0 22 7 29 15 7 9 16 13 19 10 3
-4 -5 -15 -19 -25z m-4430 -314 c388 -3 723 -9 745 -14 25 -6 -291 -9 -830
-10 -819 0 -916 2 -901 26 2 4 67 6 143 5 76 -2 455 -5 843 -7z m2954 -28 c-4
-24 -7 -136 -7 -250 l0 -208 -36 1 c-20 1 -49 5 -66 9 -24 6 -17 8 34 9 53 1
62 3 57 17 -3 9 -6 110 -6 226 l0 210 -47 -6 c-27 -3 -122 -2 -213 3 -153 7
-158 8 -65 10 55 2 138 6 185 10 47 5 105 9 128 9 l44 2 -8 -42z m757 21 c4
-8 19 -43 34 -79 16 -36 88 -190 162 -343 73 -153 133 -283 133 -290 0 -14
-211 392 -284 548 -29 61 -57 119 -63 129 -11 19 -56 22 -283 17 l-66 -1 -79
-157 c-141 -278 -197 -384 -201 -380 -3 2 57 130 133 283 l138 279 170 5 c206
6 197 7 206 -11z m-4836 -14 c44 -9 98 -25 120 -35 50 -24 112 -75 126 -103 8
-15 0 -11 -27 14 -59 55 -120 85 -214 106 -77 16 -133 18 -573 16 -269 0 -492
-4 -495 -8 -4 -4 0 -12 8 -18 20 -15 133 -172 154 -214 9 -18 15 -45 15 -60
-1 -25 -2 -25 -8 7 -4 19 -13 46 -21 60 -17 32 -197 247 -210 252 -5 1 227 2
517 1 435 -2 542 -5 608 -18z m6120 2 c171 -48 276 -156 315 -326 15 -65 8
-206 -14 -271 -9 -25 -13 -34 -10 -20 12 56 16 219 5 274 -23 124 -83 218
-174 271 -117 70 -118 70 -649 69 -263 0 -480 -3 -483 -6 -3 -3 13 -37 36 -77
23 -39 40 -73 38 -76 -3 -2 -25 26 -49 63 -25 37 -58 80 -75 96 l-30 29 520
-6 c404 -4 531 -9 570 -20z m-3652 -137 c112 -104 155 -216 162 -415 l4 -120
-8 101 c-16 199 -61 311 -169 424 -37 39 -64 70 -60 70 4 0 36 -27 71 -60z
m-2528 36 c52 -2 85 -10 125 -30 117 -58 154 -126 155 -281 0 -88 -3 -107 -27
-157 -28 -60 -70 -98 -146 -132 l-42 -19 33 -36 c27 -30 237 -368 237 -382 0
-4 -43 -4 -191 -1 l-86 2 -45 78 c-65 110 -163 239 -189 247 -12 4 -68 4 -124
0 l-102 -7 -6 30 c-9 44 4 200 17 211 7 6 86 14 176 19 94 5 175 14 188 21 29
15 62 68 62 99 0 39 -29 83 -66 98 -26 11 -80 14 -244 12 l-210 -2 0 -399 c1
-220 -1 -401 -2 -402 -2 -1 -57 -5 -123 -8 l-121 -6 1 457 0 457 -32 62 c-18
34 -33 66 -33 71 0 8 603 7 795 -2z m1343 4 c22 0 22 -2 22 -115 l0 -115 -340
0 -340 0 0 -69 c0 -38 -3 -77 -6 -86 -6 -16 14 -17 284 -14 159 2 292 2 295
-1 6 -6 37 -182 37 -210 0 -19 -8 -20 -306 -22 l-305 -3 -2 -88 -2 -87 348 0
347 0 0 -84 c0 -46 3 -98 6 -115 l7 -31 -479 0 -479 0 0 482 c0 440 -2 486
-17 517 -10 19 -18 35 -18 37 0 8 90 9 490 7 239 -2 445 -3 458 -3z m880 -11
c180 -28 280 -112 337 -282 22 -65 25 -93 25 -204 0 -161 -14 -254 -45 -319
-32 -66 -129 -157 -202 -192 l-58 -27 -375 -5 c-206 -3 -378 -3 -382 0 -4 3
-8 219 -9 480 -1 376 -5 482 -16 509 -7 19 -11 37 -7 40 7 7 422 17 564 13 58
-2 133 -7 168 -13z m2754 -331 c97 -194 191 -387 209 -428 19 -41 55 -115 82
-164 26 -50 47 -94 47 -98 0 -4 -58 -8 -129 -8 l-129 0 -101 189 c-55 104
-101 196 -101 205 0 8 -24 61 -52 118 -29 57 -66 132 -82 166 -16 35 -32 60
-37 55 -4 -4 -42 -82 -84 -173 -42 -91 -94 -201 -115 -245 -56 -115 -100 -213
-120 -265 l-18 -45 -131 -5 c-72 -3 -131 -1 -131 3 0 31 470 990 502 1024 19
21 31 23 118 23 l97 0 175 -352z m1188 332 c99 -27 162 -78 202 -165 20 -43
23 -66 23 -170 0 -114 -1 -122 -29 -170 -50 -85 -74 -111 -134 -143 -84 -44
-141 -52 -372 -52 -191 0 -210 2 -210 17 0 11 -3 14 -10 7 -6 -6 -11 -84 -12
-182 l-3 -172 -123 0 -123 0 2 473 2 472 -26 45 c-15 25 -27 47 -27 50 0 12
795 2 840 -10z m-2150 -103 l0 -114 -152 -6 c-83 -4 -209 -7 -281 -7 -146 0
-179 -10 -227 -68 -38 -46 -52 -107 -53 -235 -1 -91 2 -109 24 -152 13 -27 41
-63 62 -79 37 -30 41 -30 195 -39 86 -4 218 -6 292 -2 75 3 139 3 143 -1 4 -4
2 -13 -4 -20 -8 -9 -7 -40 1 -105 6 -51 7 -96 3 -100 -4 -4 -154 -4 -333 0
l-325 7 -59 27 c-118 54 -199 146 -231 260 -14 48 -16 94 -13 250 3 192 3 192
35 259 55 116 153 202 260 227 21 5 179 9 351 10 l312 1 0 -113z m-909 55 c-5
-9 -19 -26 -31 -37 -56 -50 -105 -165 -119 -280 -6 -49 -9 -58 -10 -30 -1 59
24 165 52 221 22 43 101 144 113 144 3 0 0 -8 -5 -18z m706 -288 c-3 -3 -12
-4 -19 -1 -8 3 -5 6 6 6 11 1 17 -2 13 -5z m-870 -176 c-3 -7 -5 -2 -5 12 0
14 2 19 5 13 2 -7 2 -19 0 -25z m1826 -124 c60 -6 76 -10 75 -23 0 -32 47
-136 70 -155 13 -10 20 -21 17 -24 -9 -10 -395 -18 -395 -8 0 16 84 201 94
208 14 9 42 10 139 2z m-723 -54 c-41 -4 -127 -7 -190 -7 l-115 1 90 6 c50 3
135 6 190 6 l100 1 -75 -7z m1687 -372 c-2 -13 -4 -5 -4 17 -1 22 1 32 4 23 2
-10 2 -28 0 -40z m-6617 28 c0 -2 -8 -10 -17 -17 -16 -13 -17 -12 -4 4 13 16
21 21 21 13z m3573 -97 c59 -16 40 -19 -28 -4 -33 7 -49 13 -35 14 14 0 42 -4
63 -10z m-688 -165 l-6 -44 -152 0 c-84 0 -157 -4 -163 -8 -22 -14 -34 -52
-34 -105 0 -64 15 -113 38 -123 9 -4 82 -9 162 -12 93 -3 148 -8 152 -16 4 -6
8 -30 8 -53 l0 -43 -165 0 c-179 0 -197 4 -247 57 -43 45 -58 93 -58 187 0 92
10 128 43 164 47 51 71 57 252 62 190 6 182 9 170 -66z m730 31 c67 -42 85
-80 85 -180 0 -103 -13 -147 -56 -195 -54 -60 -101 -73 -242 -68 -111 4 -121
6 -160 33 -65 46 -87 100 -87 215 0 119 24 172 95 208 42 21 55 23 181 20 131
-3 137 -4 184 -33z m455 -205 l0 -240 -54 0 c-30 0 -57 4 -61 9 -3 5 -2 113 1
240 l7 231 54 0 53 0 0 -240z m535 85 c81 -85 151 -152 156 -149 5 3 9 72 9
155 l0 149 55 0 55 0 0 -235 0 -235 -63 0 -63 0 -144 147 -145 147 -3 -152 -3
-152 -49 0 -50 0 0 218 c0 119 -3 227 -6 240 -6 21 -3 22 49 22 l55 0 147
-155z m-2485 -40 c0 -13 -52 -15 -412 -15 -227 0 -485 3 -573 8 l-160 7 265 5
c146 3 403 7 573 8 267 2 307 0 307 -13z m3875 -6 c-434 -11 -795 -10 -795 1
0 7 183 9 533 8 477 -2 504 -2 262 -9z m488 -6 c-18 -2 -48 -2 -65 0 -18 2 -4
4 32 4 36 0 50 -2 33 -4z"/>
<path d="M5025 8500 c-355 -35 -626 -116 -943 -281 -162 -84 -214 -117 -358
-225 -225 -168 -416 -374 -592 -635 -210 -313 -335 -682 -393 -1163 -28 -233
13 -607 98 -886 65 -216 180 -456 307 -645 109 -163 336 -410 507 -552 196
-163 524 -351 742 -424 296 -99 431 -131 660 -155 295 -31 707 11 992 103 137
44 292 105 370 146 131 68 324 182 390 230 101 73 298 252 346 313 22 29 51
59 64 68 65 43 275 352 372 548 117 239 182 450 224 738 51 345 17 747 -92
1086 -70 219 -165 418 -293 613 -200 307 -394 499 -758 752 -150 104 -529 264
-764 323 -162 41 -663 67 -879 46z m330 -65 c0 -28 -3 -30 -52 -39 -66 -11
-83 -4 -83 33 0 33 17 40 95 37 38 -1 40 -3 40 -31z m-229 -9 c11 -61 28 -68
165 -69 115 -1 122 0 140 22 11 13 19 36 19 52 0 28 2 29 48 28 26 0 94 -6
152 -12 80 -9 105 -16 106 -27 1 -8 2 -27 3 -41 0 -14 7 -33 14 -42 16 -22
243 -90 274 -82 14 3 30 20 40 40 9 19 19 35 22 35 23 -1 170 -54 234 -85 61
-29 77 -41 72 -54 -15 -37 -17 -77 -3 -88 7 -6 42 -28 78 -48 172 -99 178
-100 211 -56 l21 29 52 -36 c89 -63 148 -114 238 -207 48 -49 88 -92 88 -95 0
-3 -19 -24 -41 -45 -23 -22 -39 -32 -36 -23 4 10 9 39 13 66 6 47 6 48 -51
106 -68 71 -125 112 -135 97 -4 -8 -12 -6 -26 4 -11 8 -41 15 -70 15 -35 0
-56 5 -65 16 -10 12 -23 14 -54 10 -34 -6 -45 -3 -60 14 -24 26 -113 83 -134
85 -9 1 -35 11 -57 23 -23 12 -44 18 -48 15 -3 -4 -6 -1 -6 5 0 7 -3 11 -7 10
-16 -4 -172 52 -231 82 -34 17 -83 35 -109 40 -27 4 -68 16 -93 25 -24 9 -81
21 -125 26 -45 5 -105 13 -134 19 -30 5 -81 9 -115 8 -45 -1 -51 -2 -21 -5 81
-8 492 -94 545 -115 173 -67 346 -147 425 -196 167 -103 289 -187 345 -235 30
-27 67 -55 81 -62 14 -8 37 -29 51 -47 14 -18 35 -44 47 -57 42 -48 19 -33
-51 35 -40 38 -75 71 -78 74 -52 55 -387 270 -523 335 -210 102 -481 186 -707
220 -260 39 -600 28 -828 -29 -53 -13 -114 -27 -134 -30 -61 -11 -337 -120
-464 -185 -183 -92 -252 -137 -399 -259 -75 -63 -138 -112 -141 -110 -8 9 235
206 355 288 34 23 61 43 61 45 0 2 -15 -2 -34 -10 -19 -8 -41 -12 -49 -9 -8 3
-31 -6 -52 -20 -43 -29 -62 -32 -89 -11 -17 13 -23 13 -42 1 -12 -9 -37 -13
-58 -11 -21 2 -35 1 -32 -2 6 -6 -28 -44 -41 -46 -16 -3 -41 -30 -37 -41 7
-17 -31 -98 -55 -118 -12 -10 -21 -25 -21 -33 0 -25 -77 -20 -91 6 -12 24 -17
16 116 154 44 45 121 111 170 147 l90 64 28 -33 c16 -18 35 -33 42 -33 19 0
212 101 236 123 23 22 24 55 3 85 -9 13 -14 25 -13 26 2 2 40 21 84 43 103 51
238 100 242 88 12 -36 45 -75 64 -75 27 0 213 47 256 65 31 13 33 17 33 64 0
49 1 50 33 56 57 10 171 22 214 24 40 1 42 0 49 -33z m839 -50 c35 -10 40 -16
43 -45 3 -32 2 -33 -25 -27 -42 11 -153 64 -153 74 0 24 44 23 135 -2z m-1225
-11 c0 -26 -29 -39 -117 -52 -39 -5 -43 -4 -43 15 0 26 11 33 75 48 76 19 85
17 85 -11z m1818 -229 c59 -30 76 -49 67 -76 -8 -26 -15 -25 -69 7 -45 27 -67
57 -59 81 6 16 6 16 61 -12z m-2476 -21 c2 -16 -9 -26 -56 -48 -63 -31 -87
-27 -67 12 13 23 102 73 113 63 3 -4 8 -16 10 -27z m1281 -92 c-7 -2 -19 -2
-25 0 -7 3 -2 5 12 5 14 0 19 -2 13 -5z m30 -14 c-10 -3 -2 -9 24 -17 61 -18
130 -84 146 -139 l13 -46 155 -43 c241 -67 469 -172 618 -283 30 -23 60 -41
67 -41 16 0 121 79 163 124 49 51 95 46 126 -14 21 -40 19 -63 -6 -86 -22 -19
-22 -19 -10 3 6 12 11 26 11 32 0 19 -52 71 -71 71 -18 0 -179 -144 -179 -160
0 -4 24 -23 53 -43 30 -19 88 -68 129 -109 164 -159 256 -360 311 -678 l23
-135 45 3 c31 2 49 -1 57 -11 11 -12 7 -17 -19 -26 -18 -6 -40 -11 -50 -11
-17 0 -19 -9 -19 -72 0 -74 10 -106 28 -94 6 3 114 3 241 0 183 -6 231 -10
231 -21 0 -9 -17 -13 -57 -14 -32 -1 -140 -2 -241 -4 -101 -1 -185 -5 -188 -7
-2 -3 -1 -37 2 -77 l7 -71 239 0 c206 0 239 -2 245 -15 3 -9 2 -19 -2 -23 -3
-4 -115 -8 -247 -10 l-240 -3 6 -37 c3 -20 6 -54 6 -74 l0 -38 238 -2 c203 -3
237 -5 237 -18 0 -13 -34 -15 -237 -18 l-238 -2 0 -75 0 -75 220 0 c213 0 220
-1 220 -20 0 -11 -1 -21 -2 -22 -2 -1 -101 -4 -221 -7 l-219 -6 -3 -53 c-2
-30 -13 -69 -24 -87 -18 -32 -20 -52 -19 -302 1 -312 -8 -376 -73 -512 -55
-113 -151 -212 -230 -235 -117 -35 -239 -14 -389 66 -52 28 -140 75 -195 105
-144 78 -169 88 -296 129 -157 49 -299 74 -462 81 -151 5 -187 1 -187 -24 0
-15 -2 -15 -19 1 -18 16 -23 16 -82 1 -35 -9 -70 -24 -76 -33 -9 -11 -13 -66
-13 -186 0 -100 -5 -177 -11 -186 -7 -10 -8 45 -3 179 l7 194 -47 -7 c-73 -11
-116 -33 -116 -58 0 -21 -1 -21 -13 -3 -11 14 -21 16 -43 11 -32 -8 -245 -114
-303 -150 -141 -89 -275 -136 -392 -136 -56 0 -77 5 -137 35 -110 56 -182 149
-238 310 -28 79 -28 84 -34 385 -5 294 -6 306 -27 340 -17 26 -23 50 -23 94
l0 59 -214 -6 c-190 -6 -214 -5 -220 9 -3 9 -4 20 0 25 3 5 102 9 220 9 l214
0 0 53 c0 28 3 62 6 75 l6 22 -236 0 c-130 0 -236 2 -236 4 0 2 -3 11 -6 20
-6 14 19 16 234 16 l240 0 7 71 c4 38 5 72 3 75 -3 2 -116 7 -252 11 -218 5
-246 8 -244 22 3 14 34 16 251 19 l247 2 0 23 c0 12 3 46 6 75 l7 52 -247 0
c-213 0 -247 2 -253 15 -3 9 -3 18 0 21 2 3 117 6 253 7 l249 2 3 83 3 82 -45
0 c-28 0 -46 5 -49 14 -8 21 2 26 47 26 23 0 46 4 52 8 6 4 17 52 24 107 16
132 50 264 94 365 68 157 205 335 338 437 57 44 58 44 43 71 -8 15 -27 42 -41
60 -39 47 -16 39 35 -13 24 -25 48 -45 53 -45 5 0 51 29 102 65 139 97 395
215 585 270 69 19 126 37 126 38 1 1 8 17 15 36 28 71 117 145 200 167 43 12
246 15 213 3z m-960 -131 c28 -14 46 -38 47 -60 0 -12 -7 -9 -31 13 -39 37
-81 38 -114 4 -14 -13 -25 -19 -25 -14 0 19 58 69 80 69 12 0 31 -5 43 -12z
m1802 -13 c31 -31 33 -52 3 -31 -12 9 -31 16 -42 16 -24 0 -56 -28 -56 -49 0
-28 30 -61 56 -61 33 0 31 -16 -3 -25 -64 -16 -99 94 -48 149 30 33 59 33 90
1z m-1824 -126 c-26 -22 -72 -22 -79 -1 -3 9 3 11 20 7 12 -3 34 1 48 8 34 18
40 10 11 -14z m-868 -141 c-12 -13 -23 -32 -26 -43 -4 -18 -5 -18 -6 3 0 12 8
31 19 42 27 27 38 25 13 -2z m451 -29 c14 -11 26 -27 26 -36 0 -13 -3 -13 -15
-3 -13 11 -14 10 -9 -5 5 -11 -2 -8 -19 9 -31 31 -57 33 -82 6 -12 -14 -15
-27 -10 -47 4 -19 3 -25 -4 -18 -13 13 -18 66 -7 83 21 34 83 40 120 11z
m-514 -39 c27 0 59 -25 46 -37 -3 -3 -6 -2 -6 4 0 6 -16 11 -35 11 -20 0 -42
5 -49 11 -22 19 -93 2 -121 -28 -50 -54 -64 -73 -91 -129 -16 -31 -34 -62 -40
-68 -6 -7 -30 -51 -53 -98 -36 -71 -41 -89 -31 -101 7 -9 10 -18 7 -22 -10 -9
-37 17 -37 35 0 19 131 270 170 326 34 49 99 114 132 130 20 11 27 9 51 -11
16 -13 41 -23 57 -23z m3693 20 c-7 -25 -54 -60 -82 -60 -12 0 -21 -4 -21 -10
0 -5 28 -44 63 -87 106 -131 180 -250 282 -453 86 -171 120 -288 160 -548 35
-220 40 -562 12 -711 -64 -334 -165 -593 -329 -843 -174 -265 -394 -501 -613
-656 -142 -101 -388 -229 -555 -289 -52 -18 -104 -37 -115 -42 -23 -10 -270
-65 -361 -81 -194 -33 -466 -29 -704 10 -498 82 -1036 367 -1306 691 -38 45
-87 103 -110 128 -86 97 -224 303 -286 426 -79 157 -174 445 -202 612 -24 144
-38 315 -28 348 7 24 10 8 15 -75 13 -216 58 -416 148 -665 93 -257 283 -542
538 -808 83 -87 242 -211 391 -305 116 -73 419 -207 565 -250 637 -188 1318
-90 1908 275 354 220 734 673 877 1048 123 325 167 563 157 864 -16 512 -145
899 -426 1274 -139 186 -138 184 -114 164 20 -18 22 -18 50 -1 15 10 41 28 56
41 35 28 36 28 30 3z m-3182 -73 c-10 -9 -11 -8 -5 6 3 10 9 15 12 12 3 -3 0
-11 -7 -18z m-488 -24 c-9 -16 -31 -46 -48 -68 -59 -75 -137 -196 -206 -323
-86 -156 -80 -123 8 46 73 139 124 219 196 310 52 63 81 84 50 35z m477 -3
c-8 -5 -24 -9 -35 -9 l-20 0 20 9 c11 5 27 9 35 9 13 1 13 0 0 -9z m-960 -504
c0 -2 -14 -19 -32 -37 -26 -28 -29 -30 -18 -9 17 34 31 50 41 50 5 0 9 -2 9
-4z m475 -31 c14 -13 25 -34 25 -47 -1 -21 -2 -22 -14 -5 -7 9 -23 17 -35 17
-12 0 -31 5 -42 11 -16 8 -25 7 -40 -7 -29 -26 -31 -12 -3 24 32 40 74 43 109
7z m4090 16 c8 -15 -13 -23 -38 -15 -21 7 -21 7 -2 15 27 10 33 10 40 0z
m-4436 -73 c-82 -200 -135 -449 -153 -728 -2 -30 -2 24 -1 120 l3 175 51 181
c27 99 55 193 61 210 13 33 59 114 65 114 2 0 -10 -33 -26 -72z m4050 46 c12
-15 21 -32 21 -39 0 -16 -25 -14 -42 3 -26 26 -78 7 -78 -29 0 -9 -6 -22 -14
-28 -11 -10 -16 -8 -21 8 -25 80 84 149 134 85z m-4285 -203 c-15 -66 -41
-124 -29 -66 10 53 36 137 40 133 2 -2 -2 -32 -11 -67z m4306 -168 c16 -9 31
-25 33 -35 6 -21 0 -22 -33 -3 -41 24 -66 18 -99 -22 -22 -28 -30 -33 -31 -20
0 25 27 74 47 86 26 15 51 13 83 -6z m-3780 -13 c11 -11 20 -30 20 -42 0 -19
-2 -20 -10 -8 -7 11 -10 6 -10 -20 0 -43 -15 -60 -50 -59 -23 0 -23 1 -5 9 32
12 48 37 41 63 -5 23 -42 47 -71 47 -17 0 -34 -30 -37 -64 -3 -34 -18 -22 -18
15 0 66 93 106 140 59z m-183 -105 c8 -22 6 -23 -67 -26 -60 -3 -65 -1 -68 19
-3 21 0 22 63 22 50 0 67 -4 72 -15z m4201 -8 c3 -15 -6 -17 -72 -17 -60 0
-76 3 -76 15 0 10 16 15 58 18 80 5 86 4 90 -16z m-277 -35 c13 2 31 8 39 13
13 8 13 7 1 -8 -21 -27 -73 -22 -102 10 l-24 26 31 -22 c17 -13 41 -21 55 -19z
m-4329 -362 c-3 -87 -4 -90 -27 -90 -30 0 -35 16 -35 106 l0 74 33 0 32 0 -3
-90z m4918 10 c0 -44 -3 -80 -7 -80 -5 0 -18 -3 -30 -6 -22 -6 -23 -4 -23 73
0 44 3 83 7 86 3 4 17 7 30 7 22 0 23 -3 23 -80z m-4885 -210 c-3 -5 -18 -10
-33 -9 l-27 1 25 8 c35 11 42 11 35 0z m4332 -366 c43 -33 47 -65 4 -35 -39
28 -65 26 -89 -4 -23 -29 -32 -31 -32 -8 0 21 49 73 68 73 9 0 30 -11 49 -26z
m-3769 -10 c12 -8 22 -22 22 -32 0 -14 -3 -14 -18 5 -28 36 -99 30 -127 -10
-11 -16 -15 -17 -15 -6 0 17 35 53 60 62 19 7 48 -1 78 -19z m-343 -500 c-23
-17 -32 -10 -15 11 7 8 17 12 23 8 6 -4 3 -11 -8 -19z m2022 -261 c-3 -10 -5
-2 -5 17 0 19 2 27 5 18 2 -10 2 -26 0 -35z m-347 -108 c0 -5 -5 -3 -10 5 -5
8 -10 20 -10 25 0 6 5 3 10 -5 5 -8 10 -19 10 -25z m327 -152 c-2 -32 -3 -6
-3 57 0 63 1 89 3 58 2 -32 2 -84 0 -115z m170 115 c-3 -7 -5 -2 -5 12 0 14 2
19 5 13 2 -7 2 -19 0 -25z m-664 -118 c37 -42 38 -107 1 -147 -20 -22 -23 -24
-15 -6 6 12 16 25 21 28 19 12 11 64 -12 79 -31 19 -115 28 -139 16 -39 -22
-14 24 31 54 34 23 78 14 113 -24z m1450 18 c26 -13 44 -36 51 -63 5 -18 3
-18 -14 3 -41 49 -159 16 -161 -46 l-1 -27 -7 25 c-10 33 4 70 37 97 30 25 62
29 95 11z m-2557 -42 c-9 -17 -16 -23 -21 -16 -4 6 1 20 11 31 23 25 28 19 10
-15z m511 -411 c38 -18 53 -31 53 -45 0 -26 -4 -25 -62 10 -26 17 -55 30 -63
30 -9 0 -12 6 -9 15 8 20 18 19 81 -10z m2613 5 c0 -15 -100 -62 -117 -56 -25
10 -9 28 47 51 54 22 70 23 70 5z m-1952 -289 c47 -6 72 -31 30 -30 -47 1
-133 34 -136 53 -4 16 -2 17 29 1 17 -10 52 -20 77 -24z m1329 13 c2 -7 -25
-19 -68 -29 -60 -15 -73 -16 -80 -4 -6 11 5 18 49 31 63 18 93 19 99 2z m-657
-99 c0 -24 -2 -25 -66 -25 -57 0 -65 2 -62 18 2 13 17 18 63 23 33 3 61 6 63
7 1 1 2 -9 2 -23z"/>
<path d="M4924 8279 c-78 -7 -191 -34 -207 -49 -8 -7 103 8 243 34 86 15 66
24 -36 15z"/>
<path d="M4635 8213 c-77 -17 -262 -90 -418 -163 -20 -10 -35 -14 -31 -9 6 10
-30 -2 -76 -26 -37 -19 -39 -28 -4 -15 38 15 42 12 14 -10 l-25 -20 45 19 c25
11 74 34 110 51 36 17 83 40 105 50 22 11 87 33 145 50 58 17 111 33 118 36 7
2 10 8 7 14 -4 6 5 10 19 10 14 0 26 5 26 10 0 10 -2 11 -35 3z"/>
<path d="M5175 7915 c-83 -34 -125 -81 -125 -140 0 -40 -3 -45 -27 -51 -380
-88 -763 -282 -985 -497 -141 -138 -250 -325 -297 -510 -49 -187 -73 -429 -90
-906 -10 -256 -10 -266 11 -320 19 -52 20 -75 18 -291 -2 -290 9 -385 58 -503
67 -162 138 -218 285 -225 110 -6 183 16 334 100 220 122 418 205 606 253 385
97 785 24 1219 -224 207 -118 251 -135 338 -136 159 0 263 92 344 305 19 51
21 76 22 367 1 309 2 312 25 350 23 37 24 43 21 243 -8 643 -86 1083 -231
1306 -173 268 -546 516 -961 639 -69 21 -147 40 -175 44 -36 5 -49 11 -47 21
8 34 -11 102 -36 131 -60 72 -192 91 -307 44z m194 -92 c17 -16 33 -40 37 -55
5 -24 3 -28 -14 -28 -12 0 -24 5 -27 10 -3 6 -34 10 -68 11 l-62 1 45 14 45
14 -53 -4 c-42 -2 -59 -9 -82 -31 -28 -27 -30 -28 -30 -8 0 67 44 102 127 103
44 0 58 -5 82 -27z m-133 -375 c-4 -106 -9 -463 -13 -793 -4 -358 -10 -578
-15 -545 -6 43 -27 955 -28 1224 0 42 -2 47 -15 36 -18 -15 -134 -6 -222 18
-54 14 -63 20 -63 39 0 13 -6 23 -12 23 -9 0 -8 4 2 10 9 6 10 10 3 10 -6 0
-14 -4 -17 -8 -3 -5 -18 -9 -33 -10 -73 -2 -318 -116 -490 -228 -127 -83 -295
-256 -349 -360 -101 -195 -154 -437 -170 -784 -5 -110 -9 -146 -15 -125 -20
72 38 621 82 768 47 159 158 339 274 444 124 113 419 286 610 358 71 26 258
76 375 100 113 23 102 42 96 -177z m253 162 c381 -77 738 -257 971 -490 116
-116 157 -177 208 -313 40 -107 60 -194 66 -297 l6 -75 -15 70 c-8 39 -19 92
-25 118 -5 26 -21 71 -33 100 -13 29 -32 77 -42 107 -25 77 -58 120 -182 240
-88 85 -135 120 -241 183 -191 113 -369 193 -471 211 -28 5 -32 4 -22 -8 10
-12 3 -17 -36 -29 -26 -9 -77 -19 -113 -22 -75 -8 -89 -11 -112 -20 -12 -5
-20 -2 -24 9 -23 60 -31 -52 -39 -574 -15 -935 -30 -888 -38 118 l-6 692 23 0
c13 0 69 -9 125 -20z m-818 -371 c86 -61 41 -229 -62 -229 -84 0 -133 49 -133
132 0 41 5 53 29 76 l28 27 -21 -29 c-45 -59 -20 -157 44 -175 108 -30 189 89
116 170 -21 23 -41 34 -73 39 l-44 7 43 2 c30 1 53 -6 73 -20z m1318 2 c-66
-7 -94 -28 -103 -77 -13 -67 35 -124 104 -124 60 0 88 26 103 95 3 11 5 4 6
-16 2 -73 -67 -115 -149 -90 -55 16 -80 52 -80 113 0 41 5 54 29 79 26 26 36
29 88 28 l58 -2 -56 -6z m-1353 -73 c8 -27 -28 -61 -60 -56 -25 4 -34 42 -16
64 20 23 67 18 76 -8z m1368 16 c17 -7 21 -50 7 -72 -9 -15 -41 -13 -43 3 -1
6 -8 16 -17 23 -14 11 -14 14 8 32 26 23 24 22 45 14z m-1587 -486 c-2 -24 -4
-7 -4 37 0 44 2 63 4 43 2 -21 2 -57 0 -80z m83 -299 c-39 -76 -188 -200 -240
-199 -8 1 0 7 19 16 52 22 167 120 201 172 16 25 31 59 31 76 2 29 2 30 6 4 2
-15 -5 -45 -17 -69z m1684 -100 c28 -30 16 -20 -26 23 -43 44 -78 84 -78 89 0
6 12 -4 27 -23 14 -18 49 -58 77 -89z m590 -199 l5 -145 -14 155 c-7 85 -13
169 -13 185 0 26 1 25 9 -10 5 -22 11 -105 13 -185z m-1557 -97 c-3 -10 -5 -4
-5 12 0 17 2 24 5 18 2 -7 2 -21 0 -30z m140 -5 c-3 -8 -6 -5 -6 6 -1 11 2 17
5 13 3 -3 4 -12 1 -19z m366 -35 c-7 -2 -19 -2 -25 0 -7 3 -2 5 12 5 14 0 19
-2 13 -5z m1054 -325 c-1 -57 -3 -11 -3 102 0 113 2 159 3 103 2 -57 2 -149 0
-205z m-1319 201 c339 -36 660 -119 880 -226 l112 -54 -2 -57 c-1 -53 -2 -54
-5 -12 l-4 45 -95 43 c-220 100 -501 170 -775 194 -136 11 -140 11 -178 -10
-37 -21 -110 -30 -125 -15 -4 4 -19 9 -34 11 -15 2 -31 7 -36 13 -15 13 -157
11 -271 -6 -88 -12 -214 -39 -365 -76 -203 -50 -419 -135 -437 -170 l-13 -24
0 26 c0 15 6 31 13 37 6 5 81 40 164 76 206 91 518 169 828 209 65 8 251 6
343 -4z m2 -328 c63 -8 61 -8 -40 -10 -127 -2 -176 -21 -55 -21 110 0 453 -59
525 -89 24 -11 24 -11 -5 -6 -16 2 -97 17 -180 32 -139 25 -170 27 -425 27
-255 1 -280 -1 -345 -21 -38 -12 -113 -31 -165 -43 -52 -12 -122 -30 -154 -41
-33 -10 -61 -17 -64 -15 -6 7 177 63 331 102 87 21 192 40 270 47 124 11 170
26 85 28 l-43 1 40 13 c39 14 69 13 225 -4z m-1401 -45 c-1 -17 -2 -16 -9 6
-4 14 -11 32 -15 40 -3 7 1 4 9 -6 9 -11 16 -29 15 -40z m1104 37 c-18 -2 -48
-2 -65 0 -18 2 -4 4 32 4 36 0 50 -2 33 -4z m1420 -9 c47 -25 119 -75 114 -81
-3 -2 -30 12 -60 31 -31 20 -60 36 -65 36 -5 0 -15 7 -22 15 -16 19 -7 19 33
-1z m-2574 2 c-10 -10 -132 -76 -135 -73 -4 4 118 76 130 77 5 0 7 -2 5 -4z
m2503 -31 c-6 -34 -12 -32 -12 6 0 16 4 28 9 25 4 -3 6 -17 3 -31z m-2674
-167 c-22 -386 5 -566 97 -630 22 -16 60 -32 85 -37 38 -7 40 -9 14 -10 -17
-1 -52 8 -78 20 -56 25 -98 90 -121 191 -20 88 -22 563 -2 571 6 3 12 6 12 6
0 1 -3 -50 -7 -111z m2911 53 c0 -25 -4 -66 -8 -91 -8 -44 -9 -44 -10 21 0 37
-4 81 -7 98 -6 26 -4 30 10 25 12 -4 16 -18 15 -53z m-2682 -3 c-2 -13 -4 -5
-4 17 -1 22 1 32 4 23 2 -10 2 -28 0 -40z m1266 -25 c-18 -2 -48 -2 -65 0 -18
2 -4 4 32 4 36 0 50 -2 33 -4z m-823 -18 c0 -3 -37 -23 -82 -46 -45 -23 -100
-52 -122 -66 -45 -29 -116 -60 -101 -45 8 9 294 161 303 162 1 0 2 -2 2 -5z
m-401 -162 c6 -13 19 -23 28 -23 17 -1 17 -1 0 -11 -11 -6 -23 -7 -28 -2 -10
10 -39 145 -38 176 0 12 7 -9 15 -48 7 -38 18 -80 23 -92z m1411 127 c21 -5
-46 -8 -170 -9 -188 -1 -344 -16 -495 -47 -16 -4 -27 -4 -24 0 11 12 247 58
334 65 98 9 299 3 355 -9z m130 -20 c20 -6 21 -8 5 -8 -11 0 -33 4 -50 8 -27
7 -27 8 -5 8 14 0 36 -4 50 -8z m145 -39 c50 -16 86 -29 80 -30 -5 0 -53 12
-105 29 -52 16 -88 29 -80 29 8 0 56 -12 105 -28z m192 -61 c40 -13 71 -25 69
-28 -6 -5 -166 48 -166 55 0 3 6 3 13 1 6 -3 45 -15 84 -28z m-1300 14 c-3 -3
-12 -4 -19 -1 -8 3 -5 6 6 6 11 1 17 -2 13 -5z m-187 -74 c-8 -5 -19 -10 -25
-10 -5 0 -3 5 5 10 8 5 20 10 25 10 6 0 3 -5 -5 -10z m1076 -69 c241 -44 438
-122 704 -280 177 -104 224 -117 307 -81 84 36 110 77 149 240 l14 55 -5 -60
c-10 -129 -56 -212 -138 -250 -28 -14 -64 -25 -78 -25 -51 0 -155 40 -239 91
-152 93 -379 192 -561 244 -102 29 -332 65 -415 65 -87 0 -321 -31 -419 -57
-180 -45 -383 -131 -610 -257 -128 -71 -141 -64 -15 9 63 36 119 70 125 75 33
27 259 129 370 167 155 52 192 61 310 78 162 23 323 19 501 -14z m-1436 -381
c-8 -5 -19 -10 -25 -10 -5 0 -3 5 5 10 8 5 20 10 25 10 6 0 3 -5 -5 -10z"/>
<path d="M3700 4658 c1 -15 30 -56 30 -42 0 5 5 2 10 -6 6 -9 10 -10 10 -3 0
7 -7 16 -16 21 -9 5 -15 12 -15 15 3 19 0 27 -9 27 -5 0 -10 -6 -10 -12z"/>
<path d="M3784 4545 c42 -68 80 -94 159 -109 53 -10 46 -1 -15 20 -34 11 -72
35 -107 68 -44 40 -51 45 -37 21z"/>
<path d="M6710 4504 c-36 -25 -91 -52 -123 -61 -41 -12 -54 -19 -43 -25 14 -8
120 11 111 20 -2 2 22 24 54 47 49 36 82 67 69 64 -2 0 -32 -20 -68 -45z"/>
<path d="M4250 4489 c-19 -10 -28 -18 -20 -18 8 0 31 8 50 19 19 11 28 19 20
18 -8 0 -31 -8 -50 -19z"/>
<path d="M2744 5520 c12 -64 39 -171 43 -167 6 6 -27 159 -38 177 -7 11 -8 8
-5 -10z"/>
<path d="M2801 5305 c1 -19 18 -51 18 -35 0 8 -4 22 -9 30 -5 8 -9 11 -9 5z"/>
<path d="M2980 4894 c0 -12 73 -144 77 -140 5 5 -65 146 -72 146 -3 0 -5 -3
-5 -6z"/>
<path d="M7510 4735 c-1 -5 -2 -14 -1 -18 1 -5 -3 -6 -7 -3 -8 5 -92 -112 -92
-126 0 -14 31 -2 36 14 3 10 9 18 14 18 14 0 62 90 57 108 -3 9 -6 13 -7 7z"/>
<path d="M3126 4638 c37 -66 73 -110 61 -75 -7 20 -86 137 -92 137 -2 0 12
-28 31 -62z"/>
<path d="M3108 2763 c7 -3 16 -2 19 1 4 3 -2 6 -13 5 -11 0 -14 -3 -6 -6z"/>
<path d="M4261 2802 l-3 -288 208 3 c196 2 211 4 254 26 30 16 54 39 75 72 29
47 30 51 30 179 0 179 -23 238 -109 277 -36 16 -68 19 -246 19 l-205 0 -4
-288z m106 141 c-3 -10 -5 -4 -5 12 0 17 2 24 5 18 2 -7 2 -21 0 -30z m0 -100
c-2 -16 -4 -5 -4 22 0 28 2 40 4 28 2 -13 2 -35 0 -50z"/>
<path d="M8120 2971 l0 -124 213 7 c239 9 258 14 291 80 17 36 18 43 5 79 -8
22 -27 50 -42 61 -27 20 -41 21 -248 21 l-219 0 0 -124z"/>
<path d="M7987 2763 c18 -2 50 -2 70 0 21 2 7 4 -32 4 -38 0 -55 -2 -38 -4z"/>
<path d="M4906 1964 c-23 -22 -29 -55 -24 -133 5 -100 7 -101 154 -101 97 0
126 3 138 15 37 37 34 186 -4 217 -31 25 -240 27 -264 2z"/>
</g>
</svg>
